<svg width="22" height="22" viewBox="0 0 22 22" fill="none" xmlns="http://www.w3.org/2000/svg">
<path d="M5.5 0.6875C5.5 0.505164 5.42757 0.330295 5.29864 0.201364C5.1697 0.0724328 4.99484 0 4.8125 0C4.63016 0 4.4553 0.0724328 4.32636 0.201364C4.19743 0.330295 4.125 0.505164 4.125 0.6875V1.375H2.75C2.02065 1.375 1.32118 1.66473 0.805456 2.18046C0.289731 2.69618 0 3.39565 0 4.125L0 5.5H22V4.125C22 3.39565 21.7103 2.69618 21.1945 2.18046C20.6788 1.66473 19.9793 1.375 19.25 1.375H17.875V0.6875C17.875 0.505164 17.8026 0.330295 17.6736 0.201364C17.5447 0.0724328 17.3698 0 17.1875 0C17.0052 0 16.8303 0.0724328 16.7014 0.201364C16.5724 0.330295 16.5 0.505164 16.5 0.6875V1.375H5.5V0.6875ZM12.9278 14.0883C13.7871 14.0883 14.5558 13.4227 14.5558 12.4657C14.5558 11.3217 13.8311 10.7745 12.9607 10.7745C12.155 10.7745 11.3548 11.3066 11.3548 12.4382C11.3548 13.5616 12.1014 14.0883 12.9278 14.0883Z" fill="#00A4F4"/>
<path d="M5.5 0.6875C5.5 0.505164 5.42757 0.330295 5.29864 0.201364C5.1697 0.0724328 4.99484 0 4.8125 0C4.63016 0 4.4553 0.0724328 4.32636 0.201364C4.19743 0.330295 4.125 0.505164 4.125 0.6875V1.375H2.75C2.02065 1.375 1.32118 1.66473 0.805456 2.18046C0.289731 2.69618 0 3.39565 0 4.125L0 5.5H22V4.125C22 3.39565 21.7103 2.69618 21.1945 2.18046C20.6788 1.66473 19.9793 1.375 19.25 1.375H17.875V0.6875C17.875 0.505164 17.8026 0.330295 17.6736 0.201364C17.5447 0.0724328 17.3698 0 17.1875 0C17.0052 0 16.8303 0.0724328 16.7014 0.201364C16.5724 0.330295 16.5 0.505164 16.5 0.6875V1.375H5.5V0.6875ZM12.9278 14.0883C13.7871 14.0883 14.5558 13.4227 14.5558 12.4657C14.5558 11.3217 13.8311 10.7745 12.9607 10.7745C12.155 10.7745 11.3548 11.3066 11.3548 12.4382C11.3548 13.5616 12.1014 14.0883 12.9278 14.0883Z" fill="#00A4F4"/>
<path d="M22 19.25V6.875H0V19.25C0 19.9793 0.289731 20.6788 0.805456 21.1945C1.32118 21.7103 2.02065 22 2.75 22H19.25C19.9793 22 20.6788 21.7103 21.1945 21.1945C21.7103 20.6788 22 19.9793 22 19.25ZM12.837 17.5863C11.3108 17.5863 10.56 16.5316 10.4954 15.6516H11.4345C11.4936 16.1604 11.9666 16.7791 12.8796 16.7791C14.0401 16.7791 14.6685 15.6131 14.674 13.8036H14.6369C14.4265 14.3729 12.7353 14.8899 12.7353 14.8899C11.5638 14.8899 10.4307 14.0511 10.4307 12.4561C10.4307 10.8928 11.6284 9.96875 12.9016 9.96875C14.5131 9.96875 15.587 10.978 15.587 13.6373C15.587 16.1191 14.5668 17.5849 12.837 17.5849V17.5863ZM8.86325 10.1131V17.4446H7.93375V11.1086H7.91725C7.5185 11.3231 6.70312 11.8236 6.1875 12.177V11.22C6.76689 10.8157 7.36974 10.4461 7.99288 10.1131H8.86325Z" fill="#00A4F4"/>
</svg>
